<svg width="832" height="616" viewBox="0 0 832 616" fill="none" xmlns="http://www.w3.org/2000/svg">
<path d="M50.3873 516.026C50.3161 516.026 50.2494 516.026 50.1783 516.026C22.356 515.915 -0.110789 493.265 0.000411015 465.439C0.320667 386.282 64.9857 321.884 144.147 321.884H254.711C282.533 321.884 305.093 344.44 305.093 372.267C305.093 400.093 282.533 422.649 254.711 422.649H144.147C120.319 422.649 100.859 442.029 100.765 465.848C100.65 493.604 78.1161 516.026 50.3873 516.026Z" fill="url(#paint0_linear_1205_191)"/>
<path d="M474.327 0H277.262C241.621 0 212.731 28.8897 212.731 64.5316V466.03C212.731 489.992 193.306 509.416 169.345 509.416H144.156C120.195 509.416 100.775 489.992 100.775 466.035V465.643C100.775 438.039 78.5746 415.812 51.0593 415.461C22.4453 415.092 -0.448546 439.885 0.0318379 468.494C1.34845 546.846 65.4975 610.181 144.16 610.181H169.349C248.96 610.181 313.5 545.641 313.5 466.03V118.802C313.5 108.843 321.573 100.765 331.537 100.765H386.096C434.828 100.765 474.335 61.2578 474.335 12.5255V0H474.327Z" fill="url(#paint1_linear_1205_191)"/>
<path d="M364.744 531.058C374.664 531.058 379.624 535.578 379.624 544.618C379.624 549.018 378.384 552.378 375.904 554.698C373.424 556.978 369.704 558.118 364.744 558.118H354.664V576.538H348.844V531.058H364.744ZM373.684 544.618C373.684 541.658 372.944 539.518 371.464 538.198C369.984 536.838 367.744 536.158 364.744 536.158H354.664V552.958H364.744C370.664 552.958 373.644 550.178 373.684 544.618ZM426.477 571.318V576.538H401.637V531.058H407.457V571.318H426.477ZM465.553 577.558C459.753 577.558 455.413 576.098 452.533 573.178C449.653 570.218 448.213 566.038 448.213 560.638V531.058H454.093V560.638C454.093 564.518 455.053 567.458 456.973 569.458C458.893 571.458 461.753 572.458 465.553 572.458C469.353 572.458 472.213 571.458 474.133 569.458C476.053 567.458 477.013 564.518 477.013 560.638V531.058H482.893V560.638C482.893 566.038 481.453 570.218 478.573 573.178C475.693 576.098 471.353 577.558 465.553 577.558ZM521.588 577.558C515.788 577.558 510.608 576.478 506.048 574.318V568.798C510.648 571.238 515.828 572.458 521.588 572.458C524.908 572.458 527.328 571.758 528.848 570.358C530.408 568.958 531.188 567.118 531.188 564.838C531.188 562.678 530.468 561.058 529.028 559.978C527.628 558.898 525.548 557.958 522.788 557.158L518.708 556.018C516.388 555.338 514.408 554.558 512.768 553.678C511.128 552.798 509.748 551.538 508.628 549.898C507.548 548.218 507.008 546.038 507.008 543.358C507.008 539.078 508.248 535.818 510.728 533.578C513.248 531.338 516.808 530.218 521.408 530.218C524.088 530.218 526.448 530.478 528.488 530.998C530.528 531.478 532.648 532.218 534.848 533.218V538.618C530.768 536.418 526.288 535.318 521.408 535.318C518.448 535.318 516.288 536.018 514.928 537.418C513.568 538.778 512.888 540.658 512.888 543.058C512.928 545.258 513.588 546.878 514.868 547.918C516.188 548.958 518.228 549.878 520.988 550.678L525.128 551.818C527.568 552.498 529.628 553.298 531.308 554.218C533.028 555.098 534.408 556.398 535.448 558.118C536.528 559.798 537.068 561.998 537.068 564.718C537.028 568.678 535.628 571.818 532.868 574.138C530.148 576.418 526.388 577.558 521.588 577.558ZM588.266 571.498V576.538H560.426V531.058H587.966V536.098H566.246V551.158H584.966V556.198H566.246V571.498H588.266ZM653.728 531.058C663.648 531.058 668.608 535.578 668.608 544.618C668.608 549.018 667.368 552.378 664.888 554.698C662.408 556.978 658.688 558.118 653.728 558.118H643.648V576.538H637.828V531.058H653.728ZM662.668 544.618C662.668 541.658 661.928 539.518 660.448 538.198C658.968 536.838 656.728 536.158 653.728 536.158H643.648V552.958H653.728C659.648 552.958 662.628 550.178 662.668 544.618ZM715.461 571.318V576.538H690.621V531.058H696.441V571.318H715.461ZM762.458 563.278H743.498L738.638 576.538H732.638L749.738 530.518H756.218L773.378 576.538H767.378L762.458 563.278ZM760.478 558.058L752.978 537.778L745.478 558.058H760.478ZM812.386 558.958V576.538H806.626V558.958L789.946 531.058H795.946L809.506 554.038L823.126 531.058H829.126L812.386 558.958Z" fill="url(#paint2_linear_1205_191)"/>
<path d="M426.258 309.283C402.599 309.283 383.424 328.463 383.424 352.117V414.287C383.424 437.946 402.604 457.121 426.258 457.121C449.917 457.121 469.092 437.941 469.092 414.287V352.117C469.092 328.463 449.913 309.283 426.258 309.283Z" fill="url(#paint3_linear_1205_191)"/>
<path d="M577.766 211.538C554.107 211.538 534.932 230.718 534.932 254.372V414.287C534.932 437.946 554.111 457.121 577.766 457.121C601.425 457.121 620.6 437.941 620.6 414.287V254.372C620.6 230.713 601.42 211.538 577.766 211.538Z" fill="url(#paint4_linear_1205_191)"/>
<path d="M729.27 260.413C705.611 260.413 686.436 279.593 686.436 303.247V414.291C686.436 437.95 705.615 457.126 729.27 457.126C752.929 457.126 772.104 437.946 772.104 414.291V303.247C772.109 279.588 752.929 260.413 729.27 260.413Z" fill="url(#paint5_linear_1205_191)"/>
<defs>
<linearGradient id="paint0_linear_1205_191" x1="0.00174541" y1="418.955" x2="305.094" y2="418.955" gradientUnits="userSpaceOnUse">
<stop stop-color="#FEEDA4"/>
<stop offset="0.23" stop-color="#FAF0C5"/>
<stop offset="0.635" stop-color="#6EE7CF"/>
<stop offset="0.885" stop-color="#6EE7CF"/>
</linearGradient>
<linearGradient id="paint1_linear_1205_191" x1="237.17" y1="576.217" x2="237.17" y2="-13.2235" gradientUnits="userSpaceOnUse">
<stop stop-color="#83FFF8"/>
<stop offset="0.279" stop-color="#FEEDA4"/>
<stop offset="0.56" stop-color="#FFF6D2"/>
<stop offset="0.8738" stop-color="#48F0CF"/>
</linearGradient>
<linearGradient id="paint2_linear_1205_191" x1="342.424" y1="562.013" x2="662.007" y2="562.013" gradientUnits="userSpaceOnUse">
<stop stop-color="#49F0CF"/>
<stop offset="0.38" stop-color="#FFF6D2"/>
<stop offset="0.67" stop-color="#8AF2D0"/>
<stop offset="1" stop-color="#FFF0B2"/>
</linearGradient>
<linearGradient id="paint3_linear_1205_191" x1="426.257" y1="208.273" x2="426.257" y2="472.795" gradientUnits="userSpaceOnUse">
<stop stop-color="#49F0CF"/>
<stop offset="0.237" stop-color="#49F0CF"/>
<stop offset="0.2856" stop-color="#49F0CF"/>
<stop offset="0.765" stop-color="#FFF6D2"/>
<stop offset="1" stop-color="#FEEDA4"/>
</linearGradient>
<linearGradient id="paint4_linear_1205_191" x1="577.764" y1="190.359" x2="577.764" y2="421.193" gradientUnits="userSpaceOnUse">
<stop stop-color="#49F0CF"/>
<stop offset="0.237" stop-color="#49F0CF"/>
<stop offset="0.8" stop-color="#FFF6D2"/>
<stop offset="1" stop-color="#FEEDA4"/>
</linearGradient>
<linearGradient id="paint5_linear_1205_191" x1="729.272" y1="190.359" x2="729.272" y2="421.192" gradientUnits="userSpaceOnUse">
<stop stop-color="#49F0CF"/>
<stop offset="0.237" stop-color="#49F0CF"/>
<stop offset="0.785" stop-color="#FFF6D2"/>
<stop offset="1" stop-color="#FEEDA4"/>
</linearGradient>
</defs>
</svg>
