<svg width="1969" height="611" viewBox="0 0 1969 611" fill="none" xmlns="http://www.w3.org/2000/svg">
<path d="M111.387 516.026C111.316 516.026 111.249 516.026 111.178 516.026C83.356 515.915 60.8892 493.265 61.0004 465.439C61.3207 386.282 125.986 321.884 205.147 321.884H315.711C343.533 321.884 366.093 344.44 366.093 372.267C366.093 400.093 343.533 422.649 315.711 422.649H205.147C181.319 422.649 161.859 442.029 161.765 465.848C161.65 493.604 139.116 516.026 111.387 516.026Z" fill="url(#paint0_linear_1205_205)"/>
<path d="M535.326 0H338.261C302.62 0 273.73 28.8897 273.73 64.5316V466.03C273.73 489.992 254.305 509.416 230.344 509.416H205.155C181.194 509.416 161.774 489.992 161.774 466.035V465.643C161.774 438.039 139.574 415.812 112.058 415.461C83.4443 415.092 60.5505 439.885 61.0309 468.494C62.3475 546.846 126.497 610.181 205.159 610.181H230.348C309.959 610.181 374.499 545.641 374.499 466.03V118.802C374.499 108.843 382.572 100.765 392.536 100.765H447.095C495.827 100.765 535.335 61.2578 535.335 12.5255V0H535.326Z" fill="url(#paint1_linear_1205_205)"/>
<path d="M535.326 0H338.261C302.62 0 273.73 28.8897 273.73 64.5316V466.03C273.73 489.992 254.305 509.416 230.344 509.416H205.155C181.194 509.416 161.774 489.992 161.774 466.035V465.643C161.774 438.039 139.574 415.812 112.058 415.461C83.4443 415.092 60.5505 439.885 61.0309 468.494C62.3475 546.846 126.497 610.181 205.159 610.181H230.348C309.959 610.181 374.499 545.641 374.499 466.03V118.802C374.499 108.843 382.572 100.765 392.536 100.765H447.095C495.827 100.765 535.335 61.2578 535.335 12.5255V0H535.326Z" fill="url(#paint2_linear_1205_205)"/>
<path d="M511.88 229.08C534.92 229.08 552.2 234.2 563.72 244.44C575.4 254.52 581.24 269.64 581.24 289.8C581.24 309.48 575.4 324.44 563.72 334.68C552.2 344.92 534.92 350.04 511.88 350.04H481.4V411H438.2V229.08H511.88ZM511.88 313.56C520.52 313.56 526.92 311.64 531.08 307.8C535.24 303.96 537.4 297.96 537.56 289.8C537.56 281.32 535.48 275.16 531.32 271.32C527.16 267.48 520.68 265.56 511.88 265.56H481.4V313.56H511.88ZM684.509 415.08C658.109 415.08 638.269 408.52 624.989 395.4C611.869 382.28 605.309 363.64 605.309 339.48V229.08H648.509V339.48C648.509 352.44 651.469 362.2 657.389 368.76C663.469 375.32 672.509 378.6 684.509 378.6C696.509 378.6 705.469 375.32 711.389 368.76C717.469 362.2 720.509 352.44 720.509 339.48V229.08H763.709V339.48C763.709 363.64 757.149 382.28 744.029 395.4C730.909 408.52 711.069 415.08 684.509 415.08ZM911.624 374.04V411H802.184V229.08H845.384V374.04H911.624ZM1001.67 415.08C988.866 415.08 977.026 413.96 966.146 411.72C955.266 409.64 944.786 406.2 934.706 401.4V362.52C955.026 373.24 977.346 378.6 1001.67 378.6C1011.11 378.6 1017.99 377 1022.31 373.8C1026.79 370.6 1029.03 366.36 1029.03 361.08C1029.03 355.8 1027.03 351.88 1023.03 349.32C1019.19 346.6 1012.23 343.88 1002.15 341.16L985.826 336.6C976.226 333.88 967.906 330.76 960.866 327.24C953.826 323.56 947.826 318.12 942.866 310.92C937.906 303.72 935.426 294.44 935.426 283.08C935.426 264.36 941.106 250.12 952.466 240.36C963.986 230.6 980.146 225.72 1000.95 225.72C1013.43 225.72 1024.39 226.84 1033.83 229.08C1043.27 231.32 1052.95 234.76 1062.87 239.4V276.84C1044.63 267.08 1023.99 262.2 1000.95 262.2C992.466 262.2 986.546 263.64 983.186 266.52C979.826 269.4 978.146 273.56 978.146 279C978.146 282.68 978.946 285.64 980.546 287.88C982.146 289.96 984.626 291.72 987.986 293.16C991.346 294.6 996.386 296.28 1003.11 298.2L1019.67 302.76C1029.91 305.64 1038.71 309 1046.07 312.84C1053.43 316.68 1059.51 322.36 1064.31 329.88C1069.27 337.4 1071.75 347.08 1071.75 358.92C1071.59 376.36 1065.27 390.12 1052.79 400.2C1040.47 410.12 1023.43 415.08 1001.67 415.08ZM1222.92 376.44V411H1101.48V229.08H1221.72V263.64H1144.68V302.28H1209.72V336.84H1144.68V376.44H1222.92ZM1383.05 229.08C1406.09 229.08 1423.37 234.2 1434.89 244.44C1446.57 254.52 1452.41 269.64 1452.41 289.8C1452.41 309.48 1446.57 324.44 1434.89 334.68C1423.37 344.92 1406.09 350.04 1383.05 350.04H1352.57V411H1309.37V229.08H1383.05ZM1383.05 313.56C1391.69 313.56 1398.09 311.64 1402.25 307.8C1406.41 303.96 1408.57 297.96 1408.73 289.8C1408.73 281.32 1406.65 275.16 1402.49 271.32C1398.33 267.48 1391.85 265.56 1383.05 265.56H1352.57V313.56H1383.05ZM1585.92 374.04V411H1476.48V229.08H1519.68V374.04H1585.92ZM1729 374.04H1658.68L1645.96 411H1602.76L1666.36 226.92H1721.08L1784.92 411H1741.72L1729 374.04ZM1716.52 337.08L1693.72 270.84L1671.16 337.08H1716.52ZM1901.16 340.68V411H1858.92V340.68L1797 229.08H1840.2L1880.04 302.28L1920.12 229.08H1963.32L1901.16 340.68Z" fill="url(#paint3_linear_1205_205)"/>
<path d="M23.568 198.781C10.5505 198.781 0 209.334 0 222.349V256.555C0 269.573 10.553 280.123 23.568 280.123C36.5854 280.123 47.136 269.57 47.136 256.555V222.349C47.136 209.334 36.583 198.781 23.568 198.781Z" fill="url(#paint4_linear_1205_205)"/>
<path d="M106.929 145C93.9118 145 83.3613 155.553 83.3613 168.568V256.555C83.3613 269.573 93.9142 280.123 106.929 280.123C119.947 280.123 130.497 269.57 130.497 256.555V168.568C130.497 155.55 119.944 145 106.929 145Z" fill="url(#paint5_linear_1205_205)"/>
<path d="M190.289 171.891C177.271 171.891 166.721 182.444 166.721 195.459V256.558C166.721 269.575 177.274 280.126 190.289 280.126C203.306 280.126 213.857 269.573 213.857 256.558V195.459C213.859 182.442 203.306 171.891 190.289 171.891Z" fill="url(#paint6_linear_1205_205)"/>
<defs>
<linearGradient id="paint0_linear_1205_205" x1="61.0017" y1="418.955" x2="366.094" y2="418.955" gradientUnits="userSpaceOnUse">
<stop stop-color="#1B2766"/>
<stop offset="0.335" stop-color="#1B2766"/>
<stop offset="0.54" stop-color="#366588"/>
<stop offset="0.755" stop-color="#6EE7CF"/>
<stop offset="0.930561" stop-color="#6EE7CF"/>
</linearGradient>
<linearGradient id="paint1_linear_1205_205" x1="298.169" y1="576.217" x2="306" y2="-9.99999" gradientUnits="userSpaceOnUse">
<stop offset="0.239603" stop-color="#1C2762"/>
<stop offset="0.43" stop-color="#16246C"/>
<stop offset="0.635" stop-color="#83FFF8"/>
<stop offset="0.8738" stop-color="#48F0CF"/>
</linearGradient>
<linearGradient id="paint2_linear_1205_205" x1="298" y1="665.5" x2="298" y2="-49" gradientUnits="userSpaceOnUse">
<stop offset="0.0309643" stop-color="#83FFF8"/>
<stop offset="0.275" stop-color="#1C2762"/>
<stop offset="0.404186" stop-color="#16246C"/>
<stop offset="0.681769" stop-color="#83FFF8"/>
<stop offset="0.94" stop-color="#48F0CF"/>
</linearGradient>
<linearGradient id="paint3_linear_1205_205" x1="419" y1="354.901" x2="1926.5" y2="357" gradientUnits="userSpaceOnUse">
<stop stop-color="#49F0CF"/>
<stop offset="0.38" stop-color="#273C71"/>
<stop offset="0.695" stop-color="#8AF2D0"/>
<stop offset="1" stop-color="#1B2765"/>
</linearGradient>
<linearGradient id="paint4_linear_1205_205" x1="23.5675" y1="143.204" x2="23.5675" y2="288.747" gradientUnits="userSpaceOnUse">
<stop stop-color="#49F0CF"/>
<stop offset="0.28" stop-color="#49F0CF"/>
<stop offset="0.73" stop-color="#566999"/>
<stop offset="0.98"/>
</linearGradient>
<linearGradient id="paint5_linear_1205_205" x1="106.928" y1="133.347" x2="106.928" y2="260.355" gradientUnits="userSpaceOnUse">
<stop stop-color="#49F0CF"/>
<stop offset="0.237" stop-color="#49F0CF"/>
<stop offset="0.8" stop-color="#566999"/>
<stop offset="1" stop-color="#212936"/>
</linearGradient>
<linearGradient id="paint6_linear_1205_205" x1="190.29" y1="133.347" x2="190.29" y2="260.354" gradientUnits="userSpaceOnUse">
<stop stop-color="#49F0CF"/>
<stop offset="0.375" stop-color="#49F0CF"/>
<stop offset="0.75" stop-color="#566999"/>
<stop offset="1" stop-color="#212936"/>
</linearGradient>
</defs>
</svg>
